<mxfile host="Electron" agent="Mozilla/5.0 (Macintosh; Intel Mac OS X 10_15_7) AppleWebKit/537.36 (KHTML, like Gecko) draw.io/28.1.2 Chrome/138.0.7204.243 Electron/37.4.0 Safari/537.36" version="28.1.2">
  <diagram name="Page-1" id="5q_p_yK51YSis2tCy6bY">
    <mxGraphModel dx="1234" dy="791" grid="1" gridSize="10" guides="1" tooltips="1" connect="1" arrows="1" fold="1" page="1" pageScale="1" pageWidth="827" pageHeight="1169" math="0" shadow="0">
      <root>
        <mxCell id="0" />
        <mxCell id="1" parent="0" />
        <mxCell id="8orWIcp9OsXRjvPuOEFY-22" style="edgeStyle=orthogonalEdgeStyle;rounded=0;orthogonalLoop=1;jettySize=auto;html=1;exitX=0.5;exitY=0;exitDx=0;exitDy=0;entryX=0;entryY=0.5;entryDx=0;entryDy=0;dashed=1;" edge="1" parent="1" source="8orWIcp9OsXRjvPuOEFY-11" target="8orWIcp9OsXRjvPuOEFY-21">
          <mxGeometry relative="1" as="geometry" />
        </mxCell>
        <mxCell id="8orWIcp9OsXRjvPuOEFY-11" value="Header" style="rounded=0;whiteSpace=wrap;html=1;fontSize=16;fillColor=#dae8fc;strokeColor=#6c8ebf;" vertex="1" parent="1">
          <mxGeometry x="180" y="330" width="100" height="60" as="geometry" />
        </mxCell>
        <mxCell id="8orWIcp9OsXRjvPuOEFY-28" style="edgeStyle=orthogonalEdgeStyle;rounded=0;orthogonalLoop=1;jettySize=auto;html=1;exitX=0.5;exitY=1;exitDx=0;exitDy=0;entryX=0;entryY=0.5;entryDx=0;entryDy=0;dashed=1;" edge="1" parent="1" source="8orWIcp9OsXRjvPuOEFY-15" target="8orWIcp9OsXRjvPuOEFY-27">
          <mxGeometry relative="1" as="geometry" />
        </mxCell>
        <mxCell id="8orWIcp9OsXRjvPuOEFY-15" value="Bitmap ptr" style="rounded=0;whiteSpace=wrap;html=1;fontSize=16;fillColor=#fff2cc;strokeColor=#d6b656;" vertex="1" parent="1">
          <mxGeometry x="280" y="330" width="100" height="60" as="geometry" />
        </mxCell>
        <mxCell id="8orWIcp9OsXRjvPuOEFY-16" value="Bitmap ptr" style="rounded=0;whiteSpace=wrap;html=1;fontSize=16;fillColor=#fff2cc;strokeColor=#d6b656;" vertex="1" parent="1">
          <mxGeometry x="380" y="330" width="100" height="60" as="geometry" />
        </mxCell>
        <mxCell id="8orWIcp9OsXRjvPuOEFY-17" value="..." style="rounded=0;whiteSpace=wrap;html=1;fontSize=16;fillColor=#fff2cc;strokeColor=#d6b656;" vertex="1" parent="1">
          <mxGeometry x="480" y="330" width="100" height="60" as="geometry" />
        </mxCell>
        <mxCell id="8orWIcp9OsXRjvPuOEFY-18" value="Bitmap ptr" style="rounded=0;whiteSpace=wrap;html=1;fontSize=16;fillColor=#fff2cc;strokeColor=#d6b656;" vertex="1" parent="1">
          <mxGeometry x="580" y="330" width="100" height="60" as="geometry" />
        </mxCell>
        <mxCell id="8orWIcp9OsXRjvPuOEFY-21" value="phys_addr_t next;&lt;div&gt;unsigned int order;&lt;/div&gt;&lt;div&gt;unsigned int num_elms;&lt;/div&gt;" style="rounded=0;whiteSpace=wrap;html=1;fontSize=13;fontFamily=Courier New;align=left;spacingLeft=3;fillColor=#f5f5f5;strokeColor=#666666;fontColor=#333333;" vertex="1" parent="1">
          <mxGeometry x="290" y="220" width="180" height="60" as="geometry" />
        </mxCell>
        <mxCell id="8orWIcp9OsXRjvPuOEFY-26" value="16 bytes" style="text;html=1;align=center;verticalAlign=middle;whiteSpace=wrap;rounded=0;fontSize=16;" vertex="1" parent="1">
          <mxGeometry x="340" y="180" width="70" height="30" as="geometry" />
        </mxCell>
        <mxCell id="8orWIcp9OsXRjvPuOEFY-30" style="edgeStyle=orthogonalEdgeStyle;rounded=0;orthogonalLoop=1;jettySize=auto;html=1;exitX=0.5;exitY=1;exitDx=0;exitDy=0;entryX=0.5;entryY=0;entryDx=0;entryDy=0;dashed=1;" edge="1" parent="1" source="8orWIcp9OsXRjvPuOEFY-27" target="8orWIcp9OsXRjvPuOEFY-29">
          <mxGeometry relative="1" as="geometry" />
        </mxCell>
        <mxCell id="8orWIcp9OsXRjvPuOEFY-27" value="phys_addr_t phys_start;&lt;div&gt;phys_addr_t bitmap;&lt;/div&gt;" style="rounded=0;whiteSpace=wrap;html=1;fontSize=13;fontFamily=Courier New;align=left;spacingLeft=3;fillColor=#f5f5f5;strokeColor=#666666;fontColor=#333333;" vertex="1" parent="1">
          <mxGeometry x="370" y="430" width="190" height="60" as="geometry" />
        </mxCell>
        <mxCell id="8orWIcp9OsXRjvPuOEFY-29" value="Bitmap" style="rounded=0;whiteSpace=wrap;html=1;fillColor=#f5f5f5;strokeColor=#666666;fontColor=#333333;fontSize=16;" vertex="1" parent="1">
          <mxGeometry x="460" y="525" width="120" height="45" as="geometry" />
        </mxCell>
        <mxCell id="8orWIcp9OsXRjvPuOEFY-31" value="512 bytes" style="text;html=1;align=center;verticalAlign=middle;whiteSpace=wrap;rounded=0;fontSize=16;" vertex="1" parent="1">
          <mxGeometry x="485" y="580" width="75" height="30" as="geometry" />
        </mxCell>
        <mxCell id="8orWIcp9OsXRjvPuOEFY-32" value="PAGE_SIZE" style="text;html=1;align=center;verticalAlign=middle;whiteSpace=wrap;rounded=0;fontSize=16;textDirection=vertical-lr;" vertex="1" parent="1">
          <mxGeometry x="670" y="345" width="60" height="30" as="geometry" />
        </mxCell>
      </root>
    </mxGraphModel>
  </diagram>
</mxfile>
